# xmcd
#
# Track frame offsets:
# 150
# 21422
# 37030
# 63155
# 86375
# 115032
# 138670
# 154142
# 181380
# 220085
#
# Disc length: 3252 seconds
#
#
# Revision: 0
# Processed by: cddbd v1.5.1PL2 Copyright (c) Steve Scherf et al.
# Submitted via: FreeRIP 2.60 
#
DISCID=850cb20a
DTITLE=Mark Van Ark - Life Inside A Box
DYEAR=1996
DGENRE=Blues
TTITLE0=Life Inside A Box
TTITLE1=The Blues Is My Baby
TTITLE2=Blues Orphan
TTITLE3=Champagne
TTITLE4=The Girl That Sits In
TTITLE5=I Can't Live Without It
TTITLE6=Botherin' My Baby
TTITLE7=Funk University
TTITLE8=Vodka
TTITLE9=Three Time's A Charm
EXTD=
EXTT0=
EXTT1=
EXTT2=
EXTT3=
EXTT4=
EXTT5=
EXTT6=
EXTT7=
EXTT8=
EXTT9=
PLAYORDER=
